<?xml version="1.0" encoding="utf-8"?>
<!-- Generator: Adobe Illustrator 18.1.1, SVG Export Plug-In . SVG Version: 6.00 Build 0)  -->
<!DOCTYPE svg PUBLIC "-//W3C//DTD SVG 1.1//EN" "http://www.w3.org/Graphics/SVG/1.1/DTD/svg11.dtd">
<svg version="1.1" id="Layer_1" xmlns="http://www.w3.org/2000/svg" xmlns:xlink="http://www.w3.org/1999/xlink" x="0px" y="0px"
	 width="267px" height="202.7px" viewBox="-420 172.3 267 202.7" style="enable-background:new -420 172.3 267 202.7;"
	 xml:space="preserve">
<style type="text/css">
	.st0{fill:#512200;stroke:#512200;stroke-miterlimit:10;}
</style>
<g>
	<path class="st0" d="M-227.2,267.8c2,7.8,3.2,16.1,3.2,24.7c0,1,0,2-0.1,3l10.1,4l8.4-6.9l6.4,7.6l-12.6,10.4l-13.1-5.3
		c-1.5,11.6-5,22.3-10.1,31.7l1.8-2.4l9.8,5.6l9.3-5.6l5.2,8.4l-14,8.5l-15.4-9c-12.1,18.7-30.7,30.7-51.7,30.7
		c-20.9,0-39.5-12-51.6-30.6l-15,8.7l-14-8.5l5.2-8.4l9.3,5.6l9.8-5.6l0.7,1c-4.6-9-7.8-19.1-9.3-30l-12.7,5.1l-12.5-10.4l6.4-7.6
		l8.4,6.9l9.7-3.8c0-1.1-0.1-2.1-0.1-3.2c0-8.6,1.1-16.9,3.2-24.7l-16.4-0.6l-7.1-14.5l9-4.3l4.8,9.7l11.3,0.5l0.2,3.3
		c6.8-20.1,20.1-36.1,36.7-44.2c0.3-6.2,5.4-11.1,11.8-11.1h27.5c6.5,0,11.8,5.2,11.8,11.7c0,0.3-0.1,0.5-0.1,0.8
		c15.6,8.6,28,24.4,34.3,43.9l0.3-4.4l11.4-0.5l4.8-9.7l9,4.3l-7.1,14.6L-227.2,267.8z"/>
	<polygon class="st0" points="-256.6,196.2 -257.9,199.6 -259.9,200.5 -264.1,201.7 -267.6,203.8 -272.5,206.5 -272.5,203.8 
		-267,199.8 -262.9,198.6 -259.3,196.2 -257.3,192.1 -253.3,190.7 -254.4,194.5 	"/>
	<polygon class="st0" points="-312.9,201.7 -317.1,200.5 -319.1,199.6 -320.4,196.2 -322.6,194.5 -323.7,190.7 -319.7,192.1 
		-317.6,196.2 -314.1,198.6 -310,199.8 -304.4,203.8 -304.4,206.5 -309.4,203.8 	"/>
</g>
</svg>
