<svg xmlns="http://www.w3.org/2000/svg" width="267" height="202.7" viewBox="-420 172.3 267 202.7" enable-background="new -420 172.3 267 202.7"><style type="text/css">.st0{fill:#512200;stroke:#512200;stroke-miterlimit:10;}</style><path class="st0" d="M-227.2 267.8c2 7.8 3.2 16.1 3.2 24.7 0 1 0 2-.1 3l10.1 4 8.4-6.9 6.4 7.6-12.6 10.4-13.1-5.3c-1.5 11.6-5 22.3-10.1 31.7l1.8-2.4 9.8 5.6 9.3-5.6 5.2 8.4-14 8.5-15.4-9c-12.1 18.7-30.7 30.7-51.7 30.7-20.9 0-39.5-12-51.6-30.6l-15 8.7-14-8.5 5.2-8.4 9.3 5.6 9.8-5.6.7 1c-4.6-9-7.8-19.1-9.3-30l-12.7 5.1-12.5-10.4 6.4-7.6 8.4 6.9 9.7-3.8-.1-3.2c0-8.6 1.1-16.9 3.2-24.7l-16.4-.6-7.1-14.5 9-4.3 4.8 9.7 11.3.5.2 3.3c6.8-20.1 20.1-36.1 36.7-44.2.3-6.2 5.4-11.1 11.8-11.1h27.5c6.5 0 11.8 5.2 11.8 11.7l-.1.8c15.6 8.6 28 24.4 34.3 43.9l.3-4.4 11.4-.5 4.8-9.7 9 4.3-7.1 14.6-16.9.6zM-256.6 196.2l-1.3 3.4-2 .9-4.2 1.2-3.5 2.1-4.9 2.7v-2.7l5.5-4 4.1-1.2 3.6-2.4 2-4.1 4-1.4-1.1 3.8zM-312.9 201.7l-4.2-1.2-2-.9-1.3-3.4-2.2-1.7-1.1-3.8 4 1.4 2.1 4.1 3.5 2.4 4.1 1.2 5.6 4v2.7l-5-2.7z"/></svg>